<svg fill="none" height="156" viewBox="0 0 155 156" width="155" xmlns="http://www.w3.org/2000/svg" xmlns:xlink="http://www.w3.org/1999/xlink"><clipPath id="a"><path d="m.633301.432617h153.583v154.896h-153.583z"/></clipPath><g clip-path="url(#a)"><path d="m82.1982 18.0689c.4141.4161.8519.807 1.3126 1.1709 12.8525 7.7934 25.6762 15.632 38.5782 23.3426 7.12 4.2557 14.395 8.2509 21.542 12.4607 1.687 1.0941 3.289 2.3142 4.792 3.6499.507.4148 1.156 1.0094 1.208 1.5705.299 3.2331 2.772 6.0678 1.546 9.6232-.447 1.2995-.136 2.8833-.074 4.3318.888 20.8558 1.82 41.7095 2.663 62.5675.108 2.68-.253 5.377-.321 8.068-.027.859.091 1.717.349 2.538.97 2.959-.035 5.422-2.979 6.42-1.494.469-3.054.7-4.62.684-19.762.142-39.525.25-59.2883.323-14.9349.066-29.8719.214-44.8055.092-10.4358-.085-20.8659-.583-31.2997-.853-2.59124-.066-4.15703-.963-5.37125-3.564-1.39383-2.928-2.1608-6.114-2.25232-9.356-.62352-19.523-1.3075-39.045-1.91132-58.5689-.11814-3.8114.02219-7.6306.0596-11.4459-.03279-.5579.02574-1.1184.17242-1.6579 2.37332-6.6289 4.45536-13.3806 7.24149-19.8304 6.78988-15.9718 17.09318-30.2077 30.14288-41.64928 2.4737-2.11242 5.1134-4.02196 7.894-5.7101 3.3309-2.073372 4.6355-1.759047 7.6684.77507 1.2315.97655 2.5541 1.83187 3.9502 2.55389 4.8194 2.64112 9.7077 5.15872 14.4937 7.85832 1.6934.9549 2.8223.8033 4.5124-.2784 3.7929-2.364 7.7152-4.51323 11.7491-6.4379 1.4242-.65445 2.9902-.9381 4.5536-.82443 1.0502.07154 2.5775.87363 2.8932 1.72094.3098.83027-.3531 2.43689-1.1092 3.15499-1.1814 1.123-2.7731 1.8457-4.2479 2.6287-2.8432 1.5148-5.7318 2.9535-9.0423 4.6422zm57.4128 45.2433c-21.245-12.9666-41.517-27.1297-63.1663-39.142-.6393.7456-1.0258 1.1433-1.3494 1.587-.3846.5251-.7154 1.0962-1.2129 1.87.8887.7276 1.7366 1.5037 2.5393 2.3247 5.5415 6.3048 5.256 16.8962-.9753 21.8562-5.4476 4.3351-11.8644 6.3441-18.9121 5.2848-5.5934-.8408-9.1443-4.9088-9.567-10.5559-.7548-10.08 6.9892-20.0736 16.9642-21.2779 3.1584-.3814 4.8846-1.6532 5.961-4.4492l-21.6907-13.05006c-17.7585 15.78166-30.3062 35.26906-36.7632 58.80776 8.2817.9779 117.0914-1.2686 128.1724-3.2554zm-130.41131 11.4314c-.45944 1.7721.57475 16.48 1.54021 19.6632 5.9825 0 12.0311.2251 18.0583-.0453 14.805-.6642 29.6005-1.5023 44.3983-2.3707 20.9588-1.2293 41.9125-2.5498 62.8685-3.8284 2.096-.1312 4.192-.2369 6.377-.3597v-14.698c-22.3.5907-44.3854 1.4164-66.4777 1.6868-22.2211.2724-44.4491-.0092-66.76461-.0479zm133.81731 52.2944-130.4798 3.14c.1837 2.779.4005 5.55.5416 8.325.1398 2.752.2035 5.508.2987 8.204 9.2327 1.116 125.4585-1.271 130.2575-2.682-.203-5.638-.411-11.316-.618-16.986zm-35.184-8.351c4.594 0 9.038-.015 13.478.007 2.143.01 3.885-.39 4.645-2.822.313-1.001 1.293-1.805 2.011-2.664 3.961-4.725 7.942-9.44 11.895-14.1734.51-.611.91-1.3126 1.576-2.2971-7.539.5841-14.571 1.1617-21.615 1.648-1.51.1044-2.428.5586-3.022 2.0705-.903 2.287-2.092 4.463-3.188 6.67-1.924 3.881-3.872 7.75-5.78 11.561zm-37.6281 1.631c4.3732-6.911 8.3257-13.157 12.5223-19.788-7.1338.34-13.7306.681-20.3308.95-1.4531.059-2.1363.788-2.7407 2.016-2.6182 5.326-5.3382 10.602-8.0075 15.903-.2193.547-.4069 1.105-.5627 1.673zm28.7909-.886c2.2262-7.506 7.6002-13.172 11.1962-20.4124l-19.4089 1.0244-11.1762 19.967zm-57.7823 2.135c4.0036-6.606 7.8-12.864 11.9455-19.703-5.8572.263-10.9886.406-16.1002.805-.848.065-1.8669 1.095-2.367 1.94-2.2795 3.845-4.397 7.786-6.5826 11.683-1.0265 1.83-2.0857 3.642-3.4791 6.066zm12.1166-78.1037c-.0716 5.0151 2.0666 7.3077 6.2448 7.0465 3.3678-.2094 6.6258-1.2778 9.4637-3.1032 2.7481-1.7472 3.2495-4.4631 2.8721-7.3615-.1148-1.357-.6399-2.647-1.5056-3.6985s-2.0301-1.8147-3.3401-2.1882c-3.7456-1.1053-7.5682-.0611-10.6589 1.7576-2.6556 1.5608-2.7327 5.1622-3.0773 7.5473zm-24.189 59.1867h-18.0878c.3899 6.548.7794 13.071 1.164 19.517 3.9965.685 3.8964.628 5.5622-2.263 1.7308-3.004 3.6396-5.907 5.5469-8.806 1.7143-2.606 3.532-5.144 5.8134-8.448zm113.3099 14.087v-9.409l-.623-.146-6.953 10.362z" fill="#fff"/></g></svg>